<svg width="0" height="0" viewBox="0 0 16 16" fill="none" xmlns="http://www.w3.org/2000/svg"><defs><clipPath id="navbar-products-entry-icon-pin-filled-range"><path stroke="none" d="M13.7234 6.12656L9.87345 2.27656C9.77189 2.175 9.63907 2.125 9.50626 2.125C9.37345 2.125 9.24064 2.175 9.13907 2.27656L6.62189 4.79531C6.43126 4.77344 6.23907 4.76406 6.04689 4.76406C4.90314 4.76406 3.75939 5.14062 2.82032 5.89375C2.5797 6.08594 2.56095 6.44688 2.77814 6.66563L5.6172 9.50469L2.25157 12.8672C2.21095 12.9078 2.18439 12.9625 2.1797 13.0203L2.12657 13.6016C2.11251 13.7484 2.2297 13.8734 2.37501 13.8734C2.38282 13.8734 2.39064 13.8734 2.39845 13.8719L2.9797 13.8188C3.03751 13.8141 3.0922 13.7875 3.13282 13.7469L6.49845 10.3813L9.33751 13.2203C9.43907 13.3219 9.57189 13.3719 9.7047 13.3719C9.85626 13.3719 10.0063 13.3063 10.1094 13.1781C10.9891 12.0797 11.3547 10.7047 11.2063 9.375L13.7234 6.85781C13.925 6.65781 13.925 6.32969 13.7234 6.12656Z" transform="rotate(-45,8,8)"></path></clipPath></defs></svg>